<svg width="12" height="12" viewBox="0 0 12 12" fill="none" xmlns="http://www.w3.org/2000/svg">
<g id="icon-menu" clip-path="url(#clip0_434_2358)">
<path id="Vector" d="M3.5 0H2C0.89543 0 0 0.89543 0 2V3.5C0 4.60457 0.89543 5.5 2 5.5H3.5C4.60457 5.5 5.5 4.60457 5.5 3.5V2C5.5 0.89543 4.60457 0 3.5 0Z" fill="white"/>
<path id="Vector_2" d="M10 0H8.5C7.39543 0 6.5 0.895431 6.5 2V3.5C6.5 4.60457 7.39543 5.5 8.5 5.5H10C11.1046 5.5 12 4.60457 12 3.5V2C12 0.895431 11.1046 0 10 0Z" fill="white"/>
<path id="Vector_3" d="M3.5 6.5H2C0.89543 6.5 0 7.39543 0 8.5V10C0 11.1046 0.89543 12 2 12H3.5C4.60457 12 5.5 11.1046 5.5 10V8.5C5.5 7.39543 4.60457 6.5 3.5 6.5Z" fill="white"/>
<path id="Vector_4" d="M10 6.5H8.5C7.39543 6.5 6.5 7.39543 6.5 8.5V10C6.5 11.1046 7.39543 12 8.5 12H10C11.1046 12 12 11.1046 12 10V8.5C12 7.39543 11.1046 6.5 10 6.5Z" fill="white"/>
</g>
<defs>
<clipPath id="clip0_434_2358">
<rect width="12" height="12" fill="white"/>
</clipPath>
</defs>
</svg>
