<svg width="18" height="19" viewBox="0 0 18 19" fill="none" xmlns="http://www.w3.org/2000/svg">
<g clip-path="url(#clip0_743_2895)">
<path d="M9 3.8999C5.56091 3.8999 2.44216 5.78146 0.140841 8.83761C-0.0469469 9.088 -0.0469469 9.4378 0.140841 9.68818C2.44216 12.748 5.56091 14.6296 9 14.6296C12.4391 14.6296 15.5578 12.748 17.8592 9.69186C18.0469 9.44148 18.0469 9.09168 17.8592 8.8413C15.5578 5.78146 12.4391 3.8999 9 3.8999ZM9.2467 13.0426C6.96379 13.1862 5.07855 11.3046 5.22215 9.01804C5.33998 7.1328 6.86806 5.60472 8.7533 5.48689C11.0362 5.34329 12.9214 7.22485 12.7778 9.51144C12.6563 11.393 11.1283 12.9211 9.2467 13.0426ZM9.13256 11.2973C7.90273 11.3746 6.88647 10.362 6.96747 9.13218C7.03007 8.11592 7.85486 7.29481 8.87113 7.22853C10.101 7.15121 11.1172 8.16379 11.0362 9.39361C10.9699 10.4136 10.1451 11.2347 9.13256 11.2973Z" fill="#01F5F5"/>
</g>
<defs>
<clipPath id="clip0_743_2895">
<rect width="18" height="18" fill="white" transform="translate(0 0.264648)"/>
</clipPath>
</defs>
</svg>
