<svg width="14" height="16" viewBox="0 0 14 16" fill="none" xmlns="http://www.w3.org/2000/svg">
<path d="M7 8.26465C9.07107 8.26465 10.75 6.58572 10.75 4.51465C10.75 2.44358 9.07107 0.764648 7 0.764648C4.92893 0.764648 3.25 2.44358 3.25 4.51465C3.25 6.58572 4.92893 8.26465 7 8.26465Z" fill="#01F5F5"/>
<path d="M7 9.01465C3.2785 9.01465 0.25 11.7064 0.25 15.0146C0.25 15.2136 0.329018 15.4043 0.46967 15.545C0.610322 15.6856 0.801088 15.7646 1 15.7646H13C13.1989 15.7646 13.3897 15.6856 13.5303 15.545C13.671 15.4043 13.75 15.2136 13.75 15.0146C13.75 11.7064 10.7222 9.01465 7 9.01465Z" fill="#01F5F5"/>
</svg>
